<?xml version="1.0" encoding="utf-8"?>
<!-- Generator: Adobe Illustrator 16.0.4, SVG Export Plug-In . SVG Version: 6.00 Build 0)  -->
<!DOCTYPE svg PUBLIC "-//W3C//DTD SVG 1.1//EN" "http://www.w3.org/Graphics/SVG/1.1/DTD/svg11.dtd">
<svg version="1.1" id="Layer_1" xmlns="http://www.w3.org/2000/svg" xmlns:xlink="http://www.w3.org/1999/xlink" x="0px" y="0px"
	 width="227px" height="50px" viewBox="0 0 227 50" enable-background="new 0 0 227 50" xml:space="preserve">
<g>
	<g>
		<g>
			<path fill="#1B6881" d="M83.224,9.361v31.35c0,4.552-3.684,8.307-8.307,8.307h-6.068c-1.228,0-2.311-1.011-2.311-2.312V3.293
				c0-1.228,1.083-2.311,2.311-2.311h6.068C79.54,0.982,83.224,4.738,83.224,9.361z M78.601,9.361c0-2.095-1.662-3.756-3.684-3.756
				h-3.756v38.79h3.756c2.022,0,3.684-1.662,3.684-3.685V9.361z"/>
			<path fill="#1B6881" d="M97.452,5.605v17.119h6.285c0.65,0,1.156,0.505,1.156,1.156v2.311c0,0.579-0.506,1.155-1.156,1.155
				h-6.285v17.049h6.285c0.65,0,1.156,0.578,1.156,1.155v2.312c0,0.649-0.506,1.155-1.156,1.155h-8.596
				c-1.3,0-2.312-1.011-2.312-2.312V3.293c0-1.228,1.012-2.311,2.312-2.311h8.596c0.65,0,1.156,0.578,1.156,1.156V4.45
				c0,0.65-0.506,1.156-1.156,1.156H97.452z"/>
			<path fill="#1B6881" d="M131.113,2.139c0,0,0,0,0,0.072v34.745c0,1.661-0.506,3.25-1.373,4.622l-3.9,6.862
				c-0.217,0.362-0.578,0.578-1.012,0.578h-4.045c-0.434,0-0.795-0.216-1.012-0.578l-3.9-6.862
				c-0.866-1.372-1.372-2.961-1.372-4.622V2.139c0-0.578,0.506-1.156,1.155-1.156h2.312c0.578,0,1.156,0.578,1.156,1.156v34.816
				c0,0.433,0.072,0.795,0.144,1.155l3.54,6.212l3.467-6.212c0.146-0.36,0.217-0.723,0.217-1.155V2.139
				c0-0.578,0.506-1.156,1.157-1.156h2.311C130.607,0.982,131.113,1.561,131.113,2.139z"/>
		</g>
		<g>
			<path fill="#1B6881" d="M158.796,2.139V4.45c0,0.65-0.506,1.156-1.155,1.156h-3.251v42.257c0,0.649-0.506,1.155-1.156,1.155
				h-2.311c-0.65,0-1.157-0.506-1.157-1.155V5.605h-3.249c-0.65,0-1.157-0.506-1.157-1.156V2.139c0-0.578,0.507-1.156,1.157-1.156
				h11.124C158.29,0.982,158.796,1.561,158.796,2.139z"/>
			<path fill="#1B6881" d="M172.301,5.605v17.119h6.285c0.649,0,1.156,0.505,1.156,1.156v2.311c0,0.579-0.507,1.155-1.156,1.155
				h-6.285v17.049h6.285c0.649,0,1.156,0.578,1.156,1.155v2.312c0,0.649-0.507,1.155-1.156,1.155h-8.596
				c-1.301,0-2.312-1.011-2.312-2.312V3.293c0-1.228,1.012-2.311,2.312-2.311h8.596c0.649,0,1.156,0.578,1.156,1.156V4.45
				c0,0.65-0.507,1.156-1.156,1.156H172.301z"/>
			<path fill="#1B6881" d="M193.971,5.605v17.119h6.284c0.65,0,1.155,0.505,1.155,1.156v2.311c0,0.579-0.505,1.155-1.155,1.155
				h-6.284v17.049h6.284c0.65,0,1.155,0.578,1.155,1.155v2.312c0,0.649-0.505,1.155-1.155,1.155h-8.596
				c-1.3,0-2.312-1.011-2.312-2.312V3.293c0-1.228,1.012-2.311,2.312-2.311h8.596c0.65,0,1.155,0.578,1.155,1.156V4.45
				c0,0.65-0.505,1.156-1.155,1.156H193.971z"/>
			<path fill="#1B6881" d="M220.118,11.746V9.29c0-2.023-1.661-3.684-3.685-3.684c-2.021,0-3.683,1.661-3.683,3.684v3.684
				c0,0.866,0,0.866,0.216,1.229l10.402,18.347c1.372,2.456,1.372,2.456,1.372,4.551v3.611c0,4.623-3.756,8.307-8.308,8.307
				c-4.549,0-8.306-3.684-8.306-8.307v-2.456c0-0.577,0.506-1.155,1.155-1.155h2.312c0.65,0,1.156,0.578,1.156,1.155v2.456
				c0,2.095,1.661,3.757,3.683,3.757c2.023,0,3.685-1.662,3.685-3.757V37.1c0-0.795,0-0.795-0.217-1.156l-10.402-18.347
				c-1.371-2.456-1.371-2.456-1.371-4.623V9.29c0-4.551,3.757-8.307,8.306-8.307c4.552,0,8.308,3.756,8.308,8.307v2.457
				c0,0.649-0.505,1.155-1.156,1.155h-2.311C220.624,12.901,220.118,12.395,220.118,11.746z"/>
		</g>
	</g>
	<g>
		<path fill="#1B6881" d="M49.969,1.01H36.04H22.102H8.173c-3.261,0-5.914,2.652-5.914,5.914v5.651c0,3.261,2.653,5.914,5.914,5.914
			h3.304v24.587c0,3.261,2.653,5.914,5.914,5.914h23.362c3.261,0,5.915-2.653,5.915-5.914V18.489h3.302
			c3.261,0,5.914-2.652,5.914-5.914V6.924C55.883,3.663,53.23,1.01,49.969,1.01z M33.868,4.683c-0.738,1.931-2.61,3.306-4.797,3.306
			c-2.188,0-4.06-1.375-4.798-3.306H33.868z M52.21,12.576c0,1.236-1.005,2.241-2.241,2.241H44.83c-1.014,0-1.836,0.822-1.836,1.836
			v26.423c0,1.235-1.006,2.241-2.241,2.241H17.39c-1.236,0-2.241-1.006-2.241-2.241V16.653c0-1.015-0.822-1.836-1.836-1.836h-5.14
			c-1.236,0-2.242-1.005-2.242-2.241V6.924c0-1.236,1.005-2.242,2.242-2.242h12.283c0.844,3.981,4.386,6.979,8.615,6.979
			c4.229,0,7.77-2.998,8.614-6.979h12.284c1.236,0,2.241,1.005,2.241,2.242V12.576z"/>
		<path fill="#1B6881" d="M24.369,16.314c-0.717-0.718-1.88-0.716-2.597-0.001l-3.712,3.711c-0.344,0.345-0.538,0.812-0.538,1.299
			c0,0.486,0.194,0.954,0.538,1.298l3.712,3.711c0.358,0.357,0.828,0.537,1.298,0.537s0.94-0.18,1.299-0.537
			c0.717-0.718,0.717-1.88,0-2.598l-2.413-2.412l2.413-2.413C25.086,18.194,25.086,17.031,24.369,16.314z"/>
		<path fill="#1B6881" d="M36.365,16.313c-0.717-0.717-1.88-0.717-2.597,0.001c-0.717,0.717-0.717,1.88,0,2.597l2.413,2.413
			l-2.413,2.412c-0.717,0.718-0.717,1.88,0,2.598c0.359,0.357,0.829,0.537,1.299,0.537s0.939-0.18,1.298-0.537l3.711-3.711
			c0.344-0.344,0.539-0.812,0.539-1.298c0-0.487-0.194-0.954-0.539-1.299L36.365,16.313z"/>
		<path fill="#1B6881" d="M31.579,13.875c-0.961-0.325-2.003,0.192-2.327,1.153l-3.847,11.419c-0.324,0.961,0.193,2.002,1.154,2.326
			c0.194,0.065,0.392,0.096,0.586,0.096c0.767,0,1.482-0.483,1.74-1.25l3.847-11.418C33.057,15.239,32.54,14.198,31.579,13.875z"/>
	</g>
</g>
</svg>
